<?xml version="1.0" encoding="utf-8"?>
<!-- Generator: Adobe Illustrator 21.0.0, SVG Export Plug-In . SVG Version: 6.00 Build 0)  -->
<svg version="1.1" id="Layer_1" xmlns="http://www.w3.org/2000/svg" xmlns:xlink="http://www.w3.org/1999/xlink" x="0px" y="0px"
	 viewBox="0 0 192.7 36.5" style="enable-background:new 0 0 192.7 36.5;" xml:space="preserve">
<style type="text/css">
	.st0{fill:#ADADAD;}
</style>
<g id="Layer_1_1_">
</g>
<g id="Layer_2">
	<g>
		<path class="st0" d="M0,35.5V0.2h16.2c1.7,0,3.3,0.4,4.8,1.1C22.4,2,23.7,2.9,24.7,4s1.9,2.5,2.5,3.9c0.6,1.5,0.9,3,0.9,4.4
			c0,2.1-0.4,4-1.3,5.7c-0.9,1.8-2.1,3.2-3.7,4.3l7.4,13h-11l-6.2-10.8H9.7v10.8H0V35.5z M9.7,16.2h6.1c0.6,0,1.1-0.3,1.7-1
			c0.5-0.7,0.8-1.6,0.8-2.8s-0.3-2.2-0.9-2.8s-1.2-1-1.8-1H9.7V16.2z"/>
		<path class="st0" d="M48.6,27.2c1.1,0,2.1-0.2,2.9-0.7c0.8-0.5,1.4-1.2,1.9-2s0.9-1.7,1.1-2.8c0.2-1.1,0.3-2.2,0.3-3.3V0.2h9.7
			v18.1c0,2.4-0.3,4.7-0.9,6.9c-0.6,2.1-1.6,4-2.9,5.5c-1.3,1.6-3,2.8-5,3.7s-4.4,1.3-7.1,1.3c-2.8,0-5.2-0.5-7.2-1.4
			s-3.6-2.2-4.9-3.8c-1.3-1.6-2.2-3.4-2.8-5.5s-0.9-4.3-0.9-6.7V0.2h9.7v18.1c0,1.2,0.1,2.3,0.3,3.4s0.6,2,1.1,2.8s1.1,1.5,1.9,1.9
			C46.5,26.9,47.5,27.2,48.6,27.2z"/>
		<path class="st0" d="M79.8,18.1v17.3h-9.7V0.2h7.5l14.2,17.9V0.2h9.7v35.3h-7.7L79.8,18.1z"/>
		<path class="st0" d="M107.5,35.5V0.2h9.7v35.3H107.5z"/>
		<path class="st0" d="M133,18.1v17.3h-9.7V0.2h7.5L145,18.1V0.2h9.7v35.3H147L133,18.1z"/>
		<path class="st0" d="M158.8,17.5c0-2.2,0.4-4.3,1.2-6.4s2-4,3.6-5.6c1.6-1.7,3.4-3,5.7-4c2.2-1,4.7-1.5,7.6-1.5
			c3.4,0,6.4,0.7,8.9,2.1s4.4,3.3,5.6,5.6L184,13c-0.3-0.9-0.8-1.6-1.3-2.1c-0.5-0.6-1.2-1-1.8-1.3c-0.7-0.3-1.3-0.6-2.1-0.7
			c-0.7-0.1-1.4-0.2-2.1-0.2c-1.4,0-2.6,0.3-3.6,0.8s-1.8,1.3-2.5,2.1c-0.6,0.9-1.1,1.9-1.4,3c-0.3,1.1-0.5,2.2-0.5,3.3
			c0,1.2,0.2,2.4,0.5,3.5c0.4,1.1,0.9,2.1,1.6,3c0.7,0.9,1.5,1.5,2.6,2.1c1,0.5,2.1,0.8,3.4,0.8c0.7,0,1.3-0.1,2-0.2s1.4-0.4,2-0.7
			c0.6-0.3,1.2-0.8,1.7-1.3s0.9-1.2,1.2-2l7.9,4.7c-0.5,1.3-1.3,2.5-2.4,3.5c-1.1,1-2.3,1.9-3.7,2.6c-1.4,0.7-2.8,1.2-4.4,1.6
			S178,36,176.5,36c-2.6,0-5-0.5-7.2-1.6c-2.2-1-4-2.4-5.6-4.1s-2.8-3.7-3.6-5.9C159.2,22,158.8,19.8,158.8,17.5z"/>
	</g>
</g>
</svg>
