<?xml version="1.0" standalone="no"?>
<!DOCTYPE svg PUBLIC "-//W3C//DTD SVG 20010904//EN"
 "http://www.w3.org/TR/2001/REC-SVG-20010904/DTD/svg10.dtd">
<svg version="1.0" xmlns="http://www.w3.org/2000/svg"
 width="3088.000000pt" height="3088.000000pt" viewBox="0 0 3088.000000 3088.000000"
 preserveAspectRatio="xMidYMid meet">
<metadata>
Created by potrace 1.11, written by Peter Selinger 2001-2013
</metadata>
<g transform="translate(0.000000,3088.000000) scale(0.100000,-0.100000)"
fill="#000000" stroke="none">
<path d="M28129 18356 c-2 -2 -44 -7 -94 -10 -49 -3 -99 -7 -110 -10 -11 -2
-45 -7 -75 -11 -30 -4 -62 -9 -70 -10 -66 -12 -107 -18 -120 -20 -9 0 -20 -4
-25 -7 -10 -5 -82 -20 -87 -18 -2 1 -16 -4 -33 -10 -16 -7 -37 -13 -45 -15
-26 -6 -174 -55 -195 -65 -11 -5 -48 -21 -83 -35 -34 -14 -92 -39 -128 -55
-35 -17 -69 -30 -73 -30 -5 0 -11 -3 -13 -7 -1 -5 -30 -21 -63 -38 -33 -16
-79 -42 -102 -57 -23 -16 -44 -28 -48 -28 -3 0 -21 -11 -39 -25 -18 -14 -36
-25 -39 -25 -4 0 -15 -6 -24 -14 -10 -8 -50 -39 -89 -68 -187 -140 -378 -327
-569 -559 -67 -80 -253 -383 -247 -401 1 -5 -2 -8 -7 -8 -8 0 -19 -27 -17 -40
1 -3 -7 -18 -17 -33 -17 -27 -107 -243 -107 -258 0 -4 -5 -20 -12 -36 -13 -33
-12 -28 -22 -73 -5 -19 -11 -39 -14 -45 -4 -5 -7 -14 -8 -20 -1 -5 -11 -46
-22 -90 -25 -97 -61 -292 -67 -366 -2 -30 -7 -81 -10 -114 -11 -131 -6 -438
10 -525 4 -23 14 -102 21 -160 1 -14 3 -25 4 -25 2 0 6 -18 19 -85 11 -59 28
-132 45 -195 1 -5 8 -30 15 -55 17 -62 66 -208 107 -315 38 -97 194 -418 206
-423 5 -2 8 -8 8 -13 0 -6 5 -15 10 -22 6 -7 36 -50 66 -97 119 -181 351 -438
534 -591 36 -29 67 -56 70 -59 3 -3 21 -17 40 -30 19 -13 40 -29 47 -35 29
-24 70 -53 115 -80 9 -5 50 -31 90 -56 89 -54 242 -133 358 -183 47 -21 94
-41 105 -46 28 -13 228 -78 257 -84 175 -38 268 -56 316 -61 31 -3 80 -9 107
-13 115 -14 579 -6 715 13 14 2 48 6 75 10 28 4 59 9 70 12 11 2 34 7 50 10
46 8 60 11 60 13 0 1 9 3 20 5 25 4 38 7 150 40 50 14 95 27 100 29 58 16 102
31 109 38 6 4 16 8 22 8 7 0 25 5 41 12 15 6 30 12 33 13 54 18 235 100 238
107 2 5 8 8 14 8 12 0 100 42 108 51 3 3 21 14 40 24 19 10 46 26 60 35 14 10
58 39 98 65 39 27 80 56 90 64 9 9 35 29 57 46 66 49 202 171 251 225 64 71
87 100 122 150 20 30 39 57 42 60 15 15 130 240 130 254 0 13 -24 32 -57 47
-18 7 -33 17 -33 20 0 4 -8 9 -17 12 -10 4 -35 16 -55 29 -20 13 -74 45 -120
72 -46 26 -94 56 -108 65 -14 10 -45 28 -70 42 -25 13 -47 26 -50 29 -7 7 -48
30 -85 49 -16 8 -32 17 -35 21 -3 3 -21 15 -40 27 -19 11 -147 87 -285 168
-137 81 -262 156 -278 167 l-27 19 -20 -46 c-11 -26 -20 -49 -20 -52 0 -3 -10
-19 -22 -36 -13 -18 -22 -34 -22 -37 3 -10 -66 -106 -104 -145 -137 -142 -279
-231 -467 -294 -80 -26 -126 -35 -305 -58 -63 -8 -256 -7 -310 2 -25 3 -56 8
-70 10 -45 7 -138 33 -162 46 -13 7 -25 12 -28 12 -15 -3 -183 80 -211 103 -8
8 -18 14 -22 14 -3 0 -26 14 -49 30 -24 17 -54 38 -68 48 -39 27 -173 166
-206 214 -16 24 -32 45 -36 46 -5 2 -8 8 -8 13 0 6 -5 15 -10 22 -25 30 -60
90 -66 112 -3 14 -9 25 -13 25 -3 0 -12 15 -20 33 -8 17 -23 52 -34 77 -36 83
-45 105 -56 140 -19 62 -60 282 -67 365 -9 99 -10 294 -1 358 4 26 10 66 13
90 3 24 16 90 30 148 14 57 26 111 28 119 5 30 39 125 47 134 5 6 9 20 9 32 0
12 7 27 15 34 8 7 15 19 15 27 0 15 58 132 71 143 3 3 19 30 37 60 31 56 209
245 260 277 15 10 43 30 62 44 67 52 269 142 340 151 14 2 30 6 35 10 10 6 68
15 155 25 101 11 333 4 406 -12 12 -3 47 -7 78 -10 62 -6 210 -52 278 -85 24
-12 50 -23 58 -25 21 -4 136 -72 185 -109 125 -93 265 -277 304 -398 14 -44
17 -45 51 -18 14 11 104 76 200 145 96 68 180 128 185 133 6 5 24 17 40 28 17
10 32 21 35 24 3 3 59 44 125 90 66 47 125 88 130 93 13 11 182 133 215 155
30 20 161 113 175 125 6 4 18 13 28 20 18 12 17 16 -14 72 -83 152 -201 305
-345 449 -95 94 -264 236 -282 236 -6 0 -12 4 -14 9 -4 11 -144 101 -157 101
-6 0 -11 4 -11 8 0 15 -344 181 -410 198 -41 10 -147 46 -163 55 -11 6 -21 8
-24 5 -3 -2 -17 0 -32 6 -14 6 -42 14 -61 18 -142 31 -180 39 -215 44 -22 3
-50 8 -62 10 -12 3 -50 8 -85 11 -35 4 -79 9 -98 11 -45 6 -546 14 -551 10z"/>
<path d="M2 15517 l3 -2812 775 0 774 0 0 860 c0 473 3 862 7 865 9 6 567 6
572 -1 12 -12 357 -622 357 -629 0 -5 4 -10 8 -12 5 -2 29 -41 55 -88 26 -47
59 -105 73 -130 15 -25 38 -65 52 -90 14 -25 36 -62 49 -82 12 -21 23 -40 23
-42 0 -2 22 -42 49 -88 80 -137 157 -271 225 -392 15 -28 32 -52 37 -54 5 -2
9 -10 9 -19 0 -8 13 -34 30 -57 l29 -43 876 0 c481 0 875 4 875 8 0 4 -19 40
-43 81 -24 40 -59 100 -77 133 -39 70 -63 112 -89 158 -77 133 -101 178 -101
187 0 5 -4 10 -9 10 -5 0 -13 10 -17 22 -5 18 -56 109 -94 168 -5 8 -16 29
-25 45 -8 17 -19 37 -25 45 -25 37 -150 263 -150 271 0 5 -4 9 -8 9 -4 0 -13
12 -19 28 -12 28 -55 105 -104 185 -16 26 -29 49 -29 52 0 3 -13 26 -29 52
-49 80 -92 157 -104 186 -6 15 -15 27 -19 27 -4 0 -8 7 -8 15 0 8 -4 15 -10
15 -5 0 -10 4 -10 10 0 5 -26 55 -57 111 -56 97 -67 118 -125 220 l-26 47 51
36 c60 41 99 74 182 155 127 124 194 211 312 406 21 35 83 162 83 170 0 5 7
16 15 25 8 9 16 25 18 36 2 10 9 30 14 44 33 79 74 224 88 310 4 25 9 54 12
65 21 99 31 349 19 492 -7 87 -9 103 -21 163 -3 14 -8 41 -11 60 -9 51 -32
135 -60 215 -13 39 -26 81 -29 95 -3 14 -9 26 -15 28 -5 2 -10 10 -10 17 0 20
-64 146 -129 253 -31 51 -60 101 -66 110 -12 20 -67 95 -76 102 -3 3 -10 12
-15 21 -28 50 -168 198 -259 274 -167 140 -362 258 -550 334 -11 5 -32 13 -47
19 -44 18 -230 70 -273 77 -53 8 -82 13 -130 21 -22 4 -662 9 -1423 10 l-1382
3 2 -2812z m2535 1459 c44 -6 133 -45 133 -58 0 -4 5 -8 10 -8 12 0 59 -40
112 -95 60 -63 109 -167 123 -263 2 -15 7 -38 10 -52 7 -33 7 -205 0 -255 -35
-236 -166 -425 -325 -471 -21 -6 -230 -10 -540 -10 l-505 1 -1 605 c0 479 3
606 13 610 17 7 918 3 970 -4z"/>
<path d="M5258 18317 c-7 -22 -1 -3062 6 -3162 10 -137 13 -163 20 -220 15
-117 22 -158 30 -200 2 -11 7 -40 11 -65 4 -25 23 -106 41 -180 19 -74 37
-144 39 -155 3 -11 23 -72 46 -135 22 -63 42 -119 43 -125 2 -5 20 -46 41 -90
21 -44 39 -84 40 -90 8 -33 186 -318 221 -352 8 -8 14 -17 14 -21 0 -4 15 -23
33 -44 17 -20 48 -55 67 -78 64 -76 200 -204 287 -271 32 -24 60 -47 61 -51 2
-5 8 -8 13 -8 6 0 18 -8 29 -18 39 -36 252 -154 375 -207 71 -30 79 -33 160
-61 77 -26 92 -30 180 -53 42 -11 159 -37 210 -46 17 -2 41 -7 55 -10 14 -3
50 -8 80 -11 30 -3 71 -7 90 -10 67 -7 275 -16 355 -16 44 1 98 1 120 1 22 0
45 0 50 0 6 0 33 2 60 5 28 3 84 8 125 11 41 4 97 11 123 16 26 5 51 8 55 8 4
-1 9 0 12 1 3 1 16 3 30 5 14 2 50 8 80 15 30 7 64 13 75 15 11 2 20 4 20 5 0
2 7 4 71 19 173 43 460 173 616 279 26 17 51 32 54 32 3 0 19 10 34 23 15 12
37 29 50 37 12 8 30 22 40 30 10 8 37 31 61 50 129 106 278 274 396 451 82
121 76 110 153 269 39 80 75 152 79 160 5 9 12 31 16 50 4 19 11 40 15 45 12
17 79 247 94 325 3 14 7 36 10 50 10 46 16 75 21 110 3 19 8 42 10 50 5 19 11
58 20 130 4 30 9 69 11 85 3 17 7 53 9 80 3 28 8 88 12 135 4 47 7 785 7 1640
l1 1555 -775 0 -775 0 -1 -1465 c-2 -1310 -5 -1654 -18 -1755 -3 -16 -7 -57
-11 -90 -4 -33 -9 -63 -11 -66 -2 -4 -6 -27 -9 -50 -6 -54 -26 -140 -36 -154
-3 -5 -9 -23 -13 -40 -13 -54 -69 -173 -120 -255 -58 -94 -99 -147 -169 -218
-53 -55 -173 -145 -195 -148 -4 0 -28 -10 -54 -22 -79 -35 -193 -55 -333 -57
-116 -2 -235 11 -285 32 -8 3 -23 8 -32 9 -24 5 -139 67 -206 111 -55 37 -133
109 -181 167 -85 104 -206 343 -226 445 -1 9 -8 36 -15 61 -7 25 -14 58 -16
75 -5 41 -13 95 -19 125 -5 28 -16 155 -20 240 -2 30 -3 731 -4 1557 l-1 1501
-774 0 c-585 0 -775 -2 -778 -11z"/>
<path d="M11234 15512 c-1 -1550 3 -2819 7 -2822 5 -4 1487 -5 1536 -1 9 1 12
320 12 1364 0 749 0 1371 1 1382 1 18 2 18 13 4 34 -43 85 -106 110 -132 15
-17 27 -33 27 -36 0 -3 13 -20 28 -37 15 -17 41 -49 57 -70 17 -21 38 -46 48
-56 9 -10 17 -20 17 -23 0 -5 23 -34 45 -59 6 -6 76 -92 155 -191 79 -99 148
-181 152 -183 4 -2 8 -8 8 -13 0 -6 10 -20 23 -33 12 -12 31 -35 42 -50 11
-16 26 -34 33 -42 7 -7 29 -35 49 -61 20 -26 39 -50 42 -53 4 -3 22 -25 41
-50 42 -53 61 -78 75 -94 6 -6 28 -33 50 -61 22 -27 45 -55 50 -62 14 -17 7
-8 235 -293 113 -140 207 -257 210 -260 3 -3 41 -50 85 -105 43 -55 84 -105
90 -112 5 -7 15 -18 20 -25 6 -7 121 -150 255 -318 134 -168 254 -315 265
-328 l21 -22 614 2 615 3 0 2825 0 2825 -778 2 -777 1 0 -1425 c0 -784 -2
-1428 -4 -1430 -2 -2 -17 13 -32 34 -16 21 -37 47 -46 58 -9 11 -25 30 -35 42
-10 12 -27 34 -38 49 -11 15 -24 32 -30 38 -5 6 -23 29 -39 51 -17 22 -33 42
-36 45 -3 3 -68 84 -144 180 -76 96 -145 184 -155 195 -9 11 -41 52 -71 90
-30 39 -59 75 -65 81 -5 6 -21 26 -35 44 -14 18 -31 39 -38 47 -7 7 -10 13 -5
13 4 0 3 4 -4 8 -6 4 -43 48 -82 97 -40 50 -78 97 -85 106 -7 9 -49 61 -92
115 -43 54 -81 101 -84 104 -3 3 -17 21 -30 40 -13 19 -29 40 -35 46 -5 6 -21
25 -35 43 -22 28 -270 340 -303 381 -7 8 -37 47 -67 85 -30 39 -57 72 -60 75
-3 3 -30 37 -60 75 -30 39 -58 72 -62 73 -5 2 -8 10 -8 18 0 8 -3 14 -8 14 -4
0 -32 33 -62 72 -58 76 -73 96 -104 131 -10 12 -30 38 -44 57 -15 19 -38 49
-52 65 -14 17 -38 48 -55 69 -81 104 -151 192 -161 203 -8 8 -170 11 -610 11
l-600 0 0 -2816z"/>
<path d="M17228 18312 c-3 -14 -2 -5590 1 -5629 1 -10 163 -13 776 -13 l775 0
0 58 c1 75 1 5550 0 5579 l0 21 -774 1 c-720 0 -774 -1 -778 -17z"/>
<path d="M19764 18318 c-9 -14 -8 -453 0 -467 4 -6 4 -11 -1 -11 -9 0 -9 -441
1 -465 3 -8 2 -15 -2 -15 -8 0 -7 -762 1 -784 4 -9 3 -16 -1 -16 -8 0 -7 -443
2 -465 3 -8 2 -15 -2 -15 -8 0 -7 -762 1 -784 4 -9 3 -16 -1 -16 -8 0 -7 -443
2 -465 3 -8 2 -15 -2 -15 -8 0 -7 -762 1 -784 4 -9 3 -16 -1 -16 -8 0 -7 -443
2 -465 3 -8 2 -15 -2 -15 -8 0 -10 -829 -2 -831 3 0 352 -2 777 -2 679 -2 772
0 775 13 2 8 3 630 2 1383 0 752 3 1367 8 1367 4 0 8 -4 8 -9 0 -4 10 -19 23
-33 24 -28 24 -27 120 -148 38 -47 81 -101 97 -120 16 -19 72 -89 125 -155
128 -161 147 -184 165 -205 8 -10 29 -35 45 -56 28 -35 118 -148 150 -185 7
-10 37 -48 66 -85 30 -38 56 -71 59 -74 4 -3 71 -86 150 -185 79 -99 149 -185
155 -192 5 -6 20 -24 32 -40 12 -15 30 -38 40 -50 10 -12 30 -37 45 -55 14
-18 50 -63 80 -99 29 -36 64 -81 78 -99 14 -18 30 -38 35 -44 6 -6 58 -69 115
-141 57 -71 108 -131 112 -133 4 -2 8 -10 8 -17 0 -7 3 -15 8 -17 4 -2 37 -39
72 -83 36 -44 70 -87 77 -95 7 -8 81 -100 165 -205 84 -104 163 -201 175 -215
13 -14 23 -28 23 -32 0 -5 279 -8 620 -8 l620 0 0 2829 0 2830 -774 0 c-596 0
-775 -3 -778 -12 -2 -7 -3 -652 -3 -1434 0 -783 -2 -1419 -5 -1415 -4 4 -60
75 -126 157 -65 83 -122 152 -126 153 -5 2 -8 10 -8 17 0 7 -4 15 -8 17 -7 3
-70 79 -122 148 -14 18 -32 41 -40 51 -29 34 -69 85 -250 314 -100 127 -186
232 -191 233 -5 2 -9 7 -9 12 0 7 -201 264 -307 395 -5 6 -35 44 -68 85 -33
41 -62 77 -65 80 -4 3 -19 23 -36 45 -16 22 -33 45 -39 51 -5 6 -19 23 -30 38
-11 16 -26 34 -33 42 -7 7 -28 33 -46 57 -19 25 -43 55 -54 68 -11 13 -68 85
-126 159 -59 74 -112 142 -119 150 -7 8 -28 35 -47 60 -19 24 -39 50 -45 56
-5 7 -20 25 -32 41 -12 15 -30 38 -40 50 -10 12 -28 35 -40 50 -12 15 -30 38
-40 50 -10 12 -29 36 -43 54 -37 48 -117 149 -151 191 l-30 36 -594 0 c-381 0
-597 -4 -601 -10z"/>
</g>
</svg>
